<svg xmlns="http://www.w3.org/2000/svg">
<defs><linearGradient id="red" x2="0" y2="1"><stop stop-color="#ff9350"/><stop offset=".4" stop-color="#f9360d"/><stop offset="1" stop-color="#a81200"/></linearGradient><linearGradient id="gold" x2="0" y2="1"><stop stop-color="#fff787"/><stop offset=".5" stop-color="#ffdb23"/><stop offset="1" stop-color="#e18b05"/></linearGradient><linearGradient id="green" x2="0" y2="1"><stop stop-color="#e5ff59"/><stop offset="1" stop-color="#57cd00"/></linearGradient></defs>
<symbol id="heart" viewBox="0 0 64 64"><path d="M32 56C25 49 5 35 5 20 5 3 25 3 32 16 39 3 59 3 59 20 59 35 39 49 32 56Z" fill="url(#red)" stroke="#652401" stroke-width="5" stroke-linejoin="round"/><path d="M13 20C13 13 21 10 26 17" fill="none" stroke="#fff5a0" stroke-width="5" stroke-linecap="round"/></symbol>
<symbol id="coins" viewBox="0 0 64 64"><g stroke="#bd730b" stroke-width="2.5"><ellipse cx="43" cy="21" rx="18" ry="16" fill="url(#gold)" transform="rotate(-28 43 21)"/><ellipse cx="23" cy="39" rx="21" ry="19" fill="url(#gold)" transform="rotate(-28 23 39)"/><ellipse cx="23" cy="39" rx="15" ry="13" fill="none" transform="rotate(-28 23 39)"/></g><path d="M23 28V49M17 32H27M17 43H29" stroke="#fff3a5" stroke-width="3" stroke-linecap="round"/></symbol>
<symbol id="gear" viewBox="0 0 64 64"><path d="m26 5 12 0 2 8 6 3 8-2 6 10-6 6v5l6 5-6 10-8-2-6 4-2 8H26l-2-8-6-4-8 2-6-10 6-5v-5l-6-6 6-10 8 2 6-3Z" fill="#eaffff" stroke="#7ce5ed" stroke-width="2"/><circle cx="32" cy="32" r="11" fill="#25b6d0"/></symbol>
<symbol id="pop" viewBox="0 0 64 64"><path d="m32 3 8 20 21 0-17 14 6 23-18-13-19 13 7-23L3 23h21Z" fill="#fffbe9" stroke="#5a4025" stroke-width="3"/></symbol>
<symbol id="lock" viewBox="0 0 64 64"><path d="M18 30V19a14 14 0 0 1 28 0v11" fill="none" stroke="#f4f4db" stroke-width="9"/><rect x="11" y="26" width="42" height="31" rx="7" fill="url(#gold)" stroke="#75500e" stroke-width="3"/><path d="M32 35a5 5 0 1 1-3 9v6h6v-6a5 5 0 0 1-3-9" fill="#76500e"/></symbol>
<symbol id="flask" viewBox="0 0 64 64"><path d="M23 7H41M26 8v17L11 47q-3 9 8 10h26q11-1 8-10L38 25V8" fill="#d8fbff" stroke="#38616b" stroke-width="4" stroke-linejoin="round"/><path d="m20 36-8 14q-1 5 7 5h26q8 0 7-5l-8-14Z" fill="url(#green)"/><circle cx="26" cy="43" r="4" fill="#eaffb1"/><circle cx="36" cy="49" r="3" fill="#eaffb1"/></symbol>
<symbol id="dart" viewBox="0 0 64 64"><path d="m15 48 28-31" stroke="#894f20" stroke-width="8"/><path d="m36 12 21-5-7 22Z" fill="#eef8ff" stroke="#526369" stroke-width="3"/><path d="m8 54 1-17 13 8 8 11-18 2Z" fill="#ee6630" stroke="#794014" stroke-width="3"/></symbol>
<symbol id="boomer" viewBox="0 0 64 64"><path d="m12 54 16-41q4-9 12-2l17 19-9 8-14-12-10 34Z" fill="url(#gold)" stroke="#9d5316" stroke-width="4"/></symbol>
<symbol id="bomb" viewBox="0 0 64 64"><circle cx="29" cy="37" r="23" fill="#444b57" stroke="#1e2531" stroke-width="4"/><path d="m35 16 5-9q10-9 14 2" fill="none" stroke="#d6b671" stroke-width="5"/><path d="m55 1 3 8 6 1-5 4 2 8-7-4-7 2 4-7-3-6Z" fill="#ffb624"/><path d="M16 29q1-7 8-9" stroke="#aebbc5" stroke-width="5" fill="none" stroke-linecap="round"/></symbol>
<symbol id="tack" viewBox="0 0 64 64"><circle cx="32" cy="32" r="20" fill="#ff5fb7" stroke="#742055" stroke-width="4"/><g stroke="#d7e5ea" stroke-width="5"><path d="M32 1v12M32 51v12M1 32h12M51 32h12M9 9l9 9M46 46l9 9M9 55l9-9M46 18l9-9"/></g><circle cx="32" cy="32" r="7" fill="#67294b"/></symbol>
<symbol id="ice" viewBox="0 0 64 64"><g fill="none" stroke="#d6fbff" stroke-width="6" stroke-linecap="round"><path d="M32 5v54M9 18l46 28M9 46l46-28M23 9l9 8 9-8M23 55l9-8 9 8M8 27l13-3-3-13M56 37l-13 3 3 13M8 37l13 3-3 13M56 27l-13-3 3-13"/></g><circle cx="32" cy="32" r="6" fill="#31d6ef"/></symbol>
</svg>
